<svg data-v-fde0c5aa="" xmlns="http://www.w3.org/2000/svg" viewBox="0 0 300 300" class="iconLeftSlogan"><!----><defs data-v-fde0c5aa=""><!----></defs><rect data-v-fde0c5aa="" fill="transparent" x="0" y="0" width="300px" height="300px" class="logo-background-square"></rect><defs data-v-fde0c5aa=""><!----></defs><g data-v-fde0c5aa="" id="66d2c413-268c-43a4-aaf0-96a4a6a6a86f" fill="#2e3034" transform="matrix(1.877251827653782,0,0,1.877251827653782,112.67327311719114,123.91195151475546)"><path d="M6.86 13.15C6.86 12.95 6.80 12.82 6.55 12.81C5.19 12.74 5.01 12.80 5.01 12.46L5.01 9.73C5.01 9.30 5.03 9.42 6.47 7.46L8.50 4.84C8.83 4.41 9.23 4.37 9.23 4.07C9.23 3.96 9.13 3.79 8.83 3.79C8.71 3.79 8.34 3.82 7.59 3.84L7.55 3.84C6.80 3.84 6.43 3.79 6.30 3.79C6.08 3.79 6.01 3.96 6.01 4.07C6.01 4.79 7.29 4.12 7.29 4.80C7.29 5.19 6.93 5.63 4.84 8.50C4.83 8.51 4.80 8.58 4.73 8.58C4.65 8.58 4.62 8.53 4.54 8.39C2.60 5.04 2.55 4.98 2.55 4.84L2.55 4.82C2.55 4.54 2.80 4.51 2.91 4.49C3.63 4.44 3.82 4.49 3.82 4.07C3.82 3.93 3.78 3.79 3.57 3.79C3.42 3.79 2.97 3.84 2.04 3.84C1.12 3.84 0.66 3.79 0.50 3.79C0.22 3.79 0.15 3.98 0.15 4.10C0.15 4.19 0.18 4.26 0.21 4.30C0.36 4.59 0.69 4.33 0.95 4.66C1.02 4.76 0.95 4.66 3.53 8.79C3.74 9.14 3.82 9.23 3.82 9.56L3.82 12.46C3.82 12.77 3.61 12.75 3.42 12.77C2.49 12.82 2.32 12.75 2.32 13.13C2.32 13.44 2.51 13.52 2.67 13.52C2.73 13.52 3.58 13.44 4.66 13.44C5.71 13.44 6.57 13.52 6.64 13.52C6.82 13.52 6.86 13.38 6.86 13.26ZM19.98 8.72C19.98 5.87 17.77 3.36 14.76 3.36C11.94 3.36 9.59 5.66 9.59 8.50C9.60 9.91 10.21 11.30 11.21 12.26C12.21 13.22 13.58 13.78 14.95 13.78C17.68 13.78 19.98 11.66 19.98 8.72ZM10.92 8.06C10.92 5.29 12.80 4.10 14.53 4.10C15.46 4.10 16.37 4.44 17.05 5.04C18.19 6.03 18.59 7.63 18.59 8.97C18.59 11.91 16.49 12.96 14.90 12.96C12.25 12.96 10.92 10.49 10.92 8.06ZM30.62 4.16C30.62 3.99 30.62 3.79 30.37 3.79C30.24 3.79 29.88 3.84 29.13 3.84C28.39 3.84 28.03 3.79 27.90 3.79C27.76 3.79 27.64 3.86 27.64 4.10C27.64 4.35 27.79 4.40 27.94 4.41C28.59 4.48 28.88 4.47 28.88 5.15L28.88 8.96C28.88 9.25 28.90 9.53 28.90 9.83L28.90 10.02C28.90 10.43 28.88 11.06 28.63 11.58C28.06 12.80 26.60 12.85 26.07 12.85C25.30 12.85 24.25 12.73 23.55 12.08C22.75 11.37 22.69 10.39 22.69 9.39L22.69 5.01C22.69 4.82 22.74 4.58 23.14 4.52C23.72 4.44 24.01 4.54 24.01 4.16C24.01 3.95 23.95 3.79 23.74 3.79C23.59 3.79 23.14 3.84 22.25 3.84L22.16 3.84C21.31 3.82 20.89 3.79 20.75 3.79C20.52 3.79 20.47 4.00 20.47 4.13C20.47 4.41 20.73 4.45 20.85 4.47C21.21 4.51 21.43 4.49 21.43 4.87L21.43 8.40C21.43 8.75 21.42 9.11 21.42 9.46C21.42 10.12 21.43 10.67 21.60 11.26C21.77 11.80 22.44 13.65 25.79 13.65C26.85 13.65 27.75 13.44 28.43 12.96C29.60 12.15 29.68 10.82 29.68 9.86L29.68 9.41C29.68 9.18 29.67 8.97 29.67 8.75L29.67 5.57C29.67 5.53 29.68 5.47 29.68 5.43C29.68 3.96 30.62 4.77 30.62 4.16ZM35.01 12.77C34.71 12.77 34.41 12.74 34.12 12.68C33.75 12.61 33.61 12.49 33.61 12.14L33.61 5.01C33.61 4.66 33.74 4.58 34.55 4.58C35.42 4.58 36.54 4.77 37.46 5.45C38.57 6.27 39.14 7.67 39.14 9.02C39.14 11.49 37.06 12.77 35.01 12.77ZM30.97 4.28C30.97 4.48 31.01 4.61 31.22 4.61C32.05 4.63 32.37 4.58 32.37 5.12L32.37 12.21C32.37 12.52 32.31 12.70 31.99 12.71C31.25 12.75 30.95 12.70 30.95 13.05C30.95 13.41 31.15 13.44 31.28 13.44L35.24 13.44C35.66 13.44 36.08 13.43 36.48 13.36C38.49 12.99 40.54 11.12 40.54 8.64C40.54 6.65 39.27 5.25 37.88 4.61C36.64 4.03 35.20 3.99 33.82 3.99L31.28 3.99C31.15 3.99 30.97 4.02 30.97 4.28ZM46.84 6.26C46.51 6.26 46.47 6.43 46.47 6.57L46.47 7.00C46.47 7.45 46.17 7.46 45.93 7.46L43.79 7.46C43.53 7.46 43.51 7.29 43.51 7.15L43.51 5.04C43.51 4.77 43.54 4.51 43.95 4.51L46.58 4.51C47.01 4.51 46.97 4.56 47.67 5.81C47.74 5.91 47.82 6.06 48.06 6.06C48.30 6.06 48.36 5.94 48.36 5.85C48.36 5.78 48.08 4.62 47.95 3.99C47.91 3.85 47.84 3.77 47.64 3.77L41.20 3.77C41.08 3.77 40.94 3.79 40.94 4.07C40.94 4.48 41.31 4.38 41.86 4.47C42.17 4.52 42.24 4.54 42.24 4.75L42.24 12.04C42.24 12.35 42.20 12.49 41.93 12.59C41.01 12.94 40.87 12.94 40.87 13.19C40.87 13.26 40.94 13.61 41.20 13.61C41.45 13.61 41.89 13.44 42.94 13.44L47.75 13.44C48.05 13.44 48.13 13.37 48.17 13.16C48.59 11.28 48.61 11.26 48.61 11.17L48.61 11.16C48.61 10.92 48.45 10.84 48.36 10.84C48.31 10.84 48.27 10.85 48.22 10.88C47.99 11.02 47.50 12.18 47.25 12.38C46.97 12.59 45.68 12.67 45.23 12.67C44.80 12.67 44.37 12.64 43.93 12.57C43.53 12.52 43.48 12.29 43.48 12.04L43.48 8.83C43.48 8.30 43.85 8.27 44.17 8.27L46.10 8.27C46.30 8.27 46.47 8.30 46.47 8.58L46.47 9.34C46.47 9.46 46.49 9.65 46.84 9.65C47.21 9.65 47.24 9.39 47.24 9.24L47.24 6.66C47.24 6.51 47.21 6.26 46.84 6.26ZM55.69 13.15C55.69 12.95 55.64 12.82 55.38 12.81C54.03 12.74 53.84 12.80 53.84 12.46L53.84 9.73C53.84 9.30 53.86 9.42 55.30 7.46L57.33 4.84C57.67 4.41 58.06 4.37 58.06 4.07C58.06 3.96 57.96 3.79 57.67 3.79C57.54 3.79 57.18 3.82 56.42 3.84L56.38 3.84C55.64 3.84 55.26 3.79 55.13 3.79C54.91 3.79 54.84 3.96 54.84 4.07C54.84 4.79 56.13 4.12 56.13 4.80C56.13 5.19 55.76 5.63 53.68 8.50C53.66 8.51 53.63 8.58 53.56 8.58C53.48 8.58 53.45 8.53 53.37 8.39C51.44 5.04 51.38 4.98 51.38 4.84L51.38 4.82C51.38 4.54 51.63 4.51 51.74 4.49C52.46 4.44 52.65 4.49 52.65 4.07C52.65 3.93 52.61 3.79 52.40 3.79C52.25 3.79 51.80 3.84 50.88 3.84C49.95 3.84 49.49 3.79 49.34 3.79C49.06 3.79 48.99 3.98 48.99 4.10C48.99 4.19 49.01 4.26 49.04 4.30C49.20 4.59 49.52 4.33 49.78 4.66C49.85 4.76 49.78 4.66 52.36 8.79C52.57 9.14 52.65 9.23 52.65 9.56L52.65 12.46C52.65 12.77 52.44 12.75 52.25 12.77C51.32 12.82 51.16 12.75 51.16 13.13C51.16 13.44 51.34 13.52 51.51 13.52C51.56 13.52 52.42 13.44 53.49 13.44C54.54 13.44 55.40 13.52 55.47 13.52C55.65 13.52 55.69 13.38 55.69 13.26ZM63.29 13.78C64.23 13.78 65.30 13.45 66.16 12.70C66.21 12.66 66.28 12.59 66.36 12.59C66.49 12.59 66.61 12.88 66.78 12.88C66.93 12.88 66.98 12.75 66.98 12.60L66.98 10.23C66.98 10.18 66.98 10.14 66.99 10.09C67.07 9.74 67.73 9.88 67.73 9.45C67.73 9.32 67.63 9.16 67.37 9.16C67.23 9.16 66.77 9.21 65.87 9.21L65.84 9.21C64.97 9.21 64.55 9.16 64.40 9.16C64.19 9.16 64.09 9.31 64.09 9.48C64.09 9.73 64.32 9.79 64.48 9.80C65.51 9.90 65.80 9.84 65.80 10.30L65.80 11.89C65.80 11.96 65.80 12.04 65.76 12.12C65.63 12.36 64.65 13.03 63.45 13.03C61.99 13.03 59.79 12.00 59.79 8.30C59.79 5.26 61.52 4.23 62.93 4.23C64.15 4.23 65.28 4.91 65.97 5.85C66.67 6.82 66.28 7.27 66.72 7.27C67.03 7.27 67.13 7.18 67.13 7.04C67.13 6.99 66.98 5.88 66.98 4.45L66.98 4.07C66.98 3.92 66.88 3.88 66.78 3.88C66.71 3.88 66.65 3.89 66.61 3.92C66.46 4.00 66.26 4.47 66.00 4.47L65.94 4.47C65.77 4.42 64.76 3.56 63.10 3.56C60.52 3.56 58.39 5.64 58.39 8.48C58.39 11.42 60.68 13.78 63.29 13.78ZM78.48 8.72C78.48 5.87 76.27 3.36 73.26 3.36C70.45 3.36 68.10 5.66 68.10 8.50C68.11 9.91 68.71 11.30 69.72 12.26C70.71 13.22 72.09 13.78 73.46 13.78C76.19 13.78 78.48 11.66 78.48 8.72ZM69.43 8.06C69.43 5.29 71.30 4.10 73.04 4.10C73.96 4.10 74.87 4.44 75.56 5.04C76.69 6.03 77.10 7.63 77.10 8.97C77.10 11.91 75.00 12.96 73.40 12.96C70.76 12.96 69.43 10.49 69.43 8.06Z"></path></g><defs data-v-fde0c5aa=""><!----></defs><g data-v-fde0c5aa="" id="8da71a75-db8d-429d-a83b-6f666f8d683f" stroke="none" fill="#488eff" transform="matrix(2.290276146027543,0,0,2.290276146027543,33.33529621848387,113.35443497035189)"><path d="M28.59 10.781h-2.242a.497.497 0 0 0-.333.133c-.716-1.143-1.457-2.058-2.032-2.633-2-2-14-2-16 0-.573.573-1.309 1.482-2.022 2.617a.492.492 0 0 0-.309-.117H3.41c-.275 0-.5.225-.5.5v1.008c0 .275.221.542.491.594l1.359.259c-1.174 2.619-1.866 5.877-.778 9.14v1.938c0 .553.14 1 .313 1h2.562c.173 0 .313-.447.313-1v-1.584c2.298.219 5.551.459 8.812.459 3.232 0 6.521-.235 8.814-.453v1.578c0 .553.141 1 .312 1h2.562c.172 0 .312-.447.312-1l-.002-1.938c1.087-3.261.397-6.516-.775-9.134l1.392-.265a.629.629 0 0 0 .491-.594v-1.008a.498.498 0 0 0-.498-.5zM7.107 18.906a1.812 1.812 0 1 1 0-3.625 1.812 1.812 0 0 1 0 3.625zm-1.524-5.19c.96-2.197 2.296-3.917 3.106-4.728.585-.585 3.34-1.207 7.293-1.207 3.953 0 6.708.622 7.293 1.207.811.811 2.146 2.53 3.106 4.728-2.133.236-6.286-.31-10.399-.31s-8.266.546-10.399.31zm19.274 5.19a1.812 1.812 0 1 1 0-3.625 1.812 1.812 0 0 1 0 3.625z"></path></g><defs data-v-fde0c5aa=""><!----></defs><g data-v-fde0c5aa="" id="08f6156b-2a58-4996-af97-225227795b3a" fill="#2e3034" transform="matrix(0.3916504095586754,0,0,0.3916504095586754,112.80603373709165,158.70735996776185)"><path d="M0.39 12.41L0.38 11.87L0.55 11.87L0.55 11.87Q0.94 11.87 1.07 11.73L1.07 11.73L1.07 11.73Q1.19 11.57 1.52 10.83L1.52 10.83L2.43 8.82L3.01 7.53L3.01 7.53Q3.27 6.97 3.32 6.86L3.32 6.86L3.32 6.86Q3.38 6.70 3.44 6.60L3.44 6.60L3.44 6.60Q3.49 6.51 3.50 6.45L3.50 6.45L3.60 6.21L5.02 2.74L5.32 2.74L5.32 2.74Q6.17 4.98 8.36 10.25L8.36 10.25L8.36 10.25Q8.81 11.34 9.00 11.64L9.00 11.64L9.00 11.64Q9.14 11.87 9.58 11.87L9.58 11.87L9.79 11.87L9.78 12.41L6.58 12.41L6.60 11.87L7.01 11.87L7.01 11.87Q7.63 11.87 7.63 11.70L7.63 11.70L7.63 11.70Q7.63 11.63 7.49 11.27L7.49 11.27L6.45 8.72L3.21 8.72L2.10 11.18L2.10 11.18Q1.96 11.50 1.96 11.63L1.96 11.63L1.96 11.63Q1.96 11.79 2.06 11.83L2.06 11.83L2.06 11.83Q2.15 11.87 2.54 11.87L2.54 11.87L3.11 11.87L3.11 12.41L0.39 12.41ZM4.89 4.79L3.47 8.10L6.21 8.10L4.89 4.79ZM17.53 3.64L17.52 3.08L24.71 3.08L24.71 3.08Q24.72 4.14 24.77 5.28L24.77 5.28L24.23 5.30L24.23 5.30Q24.21 4.66 24.16 4.25L24.16 4.25L24.16 4.25Q24.12 3.89 24.06 3.80L24.06 3.80L24.06 3.80Q24.01 3.71 23.89 3.69L23.89 3.69L23.89 3.69Q23.80 3.68 23.21 3.68L23.21 3.68L20.83 3.68L20.83 3.68Q20.28 3.68 20.14 3.77L20.14 3.77L20.14 3.77Q20.02 3.86 20.02 4.33L20.02 4.33L20.02 6.28L20.02 6.28Q20.02 6.69 20.07 6.76L20.07 6.76L20.07 6.76Q20.14 6.84 20.47 6.84L20.47 6.84L22.59 6.84L22.59 6.84Q22.96 6.84 23.04 6.74L23.04 6.74L23.04 6.74Q23.12 6.64 23.12 6.17L23.12 6.17L23.12 5.63L23.64 5.63L23.64 8.97L23.12 8.97L23.12 8.26L23.12 8.26Q23.12 7.68 23.04 7.57L23.04 7.57L23.04 7.57Q22.96 7.46 22.62 7.46L22.62 7.46L20.52 7.46L20.52 7.46Q20.19 7.46 20.10 7.54L20.10 7.54L20.10 7.54Q20.02 7.63 20.02 7.89L20.02 7.89L20.02 11.20L20.02 11.20Q20.02 11.60 20.08 11.73L20.08 11.73L20.08 11.73Q20.17 11.87 20.43 11.87L20.43 11.87L21.37 11.87L21.37 12.41L17.77 12.41L17.77 11.87L18.18 11.87L18.18 11.87Q18.69 11.87 18.79 11.79L18.79 11.79L18.79 11.79Q18.88 11.70 18.88 11.33L18.88 11.33L18.88 4.24L18.88 4.24Q18.88 3.79 18.71 3.71L18.71 3.71L18.71 3.71Q18.57 3.64 17.53 3.64L17.53 3.64ZM32.83 3.64L32.82 3.08L40.00 3.08L40.00 3.08Q40.02 4.14 40.07 5.28L40.07 5.28L39.53 5.30L39.53 5.30Q39.51 4.66 39.46 4.25L39.46 4.25L39.46 4.25Q39.42 3.89 39.36 3.80L39.36 3.80L39.36 3.80Q39.31 3.71 39.19 3.69L39.19 3.69L39.19 3.69Q39.09 3.68 38.51 3.68L38.51 3.68L36.13 3.68L36.13 3.68Q35.58 3.68 35.44 3.77L35.44 3.77L35.44 3.77Q35.31 3.86 35.31 4.33L35.31 4.33L35.31 6.28L35.31 6.28Q35.31 6.69 35.37 6.76L35.37 6.76L35.37 6.76Q35.44 6.84 35.77 6.84L35.77 6.84L37.89 6.84L37.89 6.84Q38.25 6.84 38.34 6.74L38.34 6.74L38.34 6.74Q38.42 6.64 38.42 6.17L38.42 6.17L38.42 5.63L38.94 5.63L38.94 8.97L38.42 8.97L38.42 8.26L38.42 8.26Q38.42 7.68 38.34 7.57L38.34 7.57L38.34 7.57Q38.25 7.46 37.92 7.46L37.92 7.46L35.82 7.46L35.82 7.46Q35.49 7.46 35.40 7.54L35.40 7.54L35.40 7.54Q35.31 7.63 35.31 7.89L35.31 7.89L35.31 11.20L35.31 11.20Q35.31 11.60 35.38 11.73L35.38 11.73L35.38 11.73Q35.46 11.87 35.73 11.87L35.73 11.87L36.67 11.87L36.67 12.41L33.07 12.41L33.07 11.87L33.48 11.87L33.48 11.87Q33.99 11.87 34.08 11.79L34.08 11.79L34.08 11.79Q34.18 11.70 34.18 11.33L34.18 11.33L34.18 4.24L34.18 4.24Q34.18 3.79 34.01 3.71L34.01 3.71L34.01 3.71Q33.87 3.64 32.83 3.64L32.83 3.64ZM48.50 7.83L48.50 7.83L48.50 7.83Q48.50 6.62 48.90 5.68L48.90 5.68L48.90 5.68Q49.32 4.72 50.01 4.12L50.01 4.12L50.01 4.12Q50.70 3.51 51.56 3.19L51.56 3.19L51.56 3.19Q52.40 2.88 53.35 2.88L53.35 2.88L53.35 2.88Q54.61 2.88 55.67 3.40L55.67 3.40L55.67 3.40Q56.75 3.93 57.46 5.07L57.46 5.07L57.46 5.07Q58.15 6.17 58.16 7.75L58.16 7.75L58.16 7.75Q58.16 8.70 57.85 9.54L57.85 9.54L57.85 9.54Q57.54 10.38 56.94 11.10L56.94 11.10L56.94 11.10Q56.33 11.81 55.40 12.22L55.40 12.22L55.40 12.22Q54.43 12.63 53.25 12.64L53.25 12.64L53.25 12.64Q52.11 12.64 51.17 12.23L51.17 12.23L51.17 12.23Q50.24 11.83 49.68 11.14L49.68 11.14L49.68 11.14Q49.10 10.45 48.81 9.60L48.81 9.60L48.81 9.60Q48.50 8.72 48.50 7.83ZM49.76 7.38L49.76 7.38L49.76 7.38Q49.76 8.52 50.19 9.60L50.19 9.60L50.19 9.60Q50.59 10.64 51.52 11.33L51.52 11.33L51.52 11.33Q52.43 12.03 53.62 12.04L53.62 12.04L53.62 12.04Q55.00 12.04 55.93 11.01L55.93 11.01L55.93 11.01Q56.88 9.97 56.88 8.10L56.88 8.10L56.88 8.10Q56.88 5.99 55.72 4.72L55.72 4.72L55.72 4.72Q54.57 3.46 53.06 3.45L53.06 3.45L53.06 3.45Q52.54 3.45 52.00 3.65L52.00 3.65L52.00 3.65Q51.45 3.85 50.95 4.25L50.95 4.25L50.95 4.25Q50.40 4.68 50.08 5.48L50.08 5.48L50.08 5.48Q49.76 6.27 49.76 7.38ZM66.61 3.64L66.22 3.64L66.23 3.08L69.45 3.08L69.45 3.08Q70.59 3.08 71.19 3.21L71.19 3.21L71.19 3.21Q71.83 3.37 72.30 3.75L72.30 3.75L72.30 3.75Q73.30 4.57 73.30 5.71L73.30 5.71L73.30 5.71Q73.30 6.43 72.83 7.04L72.83 7.04L72.83 7.04Q72.34 7.66 71.31 7.92L71.31 7.92L73.99 11.49L73.99 11.49Q74.30 11.87 74.59 11.87L74.59 11.87L75.20 11.87L75.22 12.41L73.19 12.41L70.20 8.10L70.03 8.10L70.03 8.10Q69.99 8.10 69.93 8.11L69.93 8.11L69.93 8.11Q69.88 8.11 69.86 8.11L69.86 8.11L69.86 8.11Q68.98 8.11 68.58 8.03L68.58 8.03L68.58 11.46L68.58 11.46Q68.58 11.76 68.73 11.81L68.73 11.81L68.73 11.81Q68.85 11.87 69.56 11.87L69.56 11.87L70.27 11.87L70.24 12.41L66.51 12.41L66.51 11.87L66.83 11.87L66.83 11.87Q67.30 11.87 67.37 11.81L67.37 11.81L67.37 11.81Q67.45 11.74 67.45 11.46L67.45 11.46L67.45 4.14L67.45 4.14Q67.45 3.82 67.26 3.73L67.26 3.73L67.26 3.73Q67.03 3.64 66.61 3.64L66.61 3.64ZM68.58 4.28L68.58 7.57L68.58 7.57Q68.77 7.70 69.48 7.71L69.48 7.71L69.48 7.71Q70.75 7.71 71.33 7.27L71.33 7.27L71.33 7.27Q71.92 6.84 71.92 5.92L71.92 5.92L71.92 5.92Q71.92 4.92 71.15 4.27L71.15 4.27L71.15 4.27Q70.39 3.64 69.01 3.64L69.01 3.64L69.01 3.64Q68.76 3.64 68.67 3.75L68.67 3.75L68.67 3.75Q68.59 3.84 68.58 4.28L68.58 4.28ZM83.02 3.64L82.97 3.08L86.75 3.08L86.75 3.08Q88.07 3.08 88.94 3.19L88.94 3.19L88.94 3.19Q89.76 3.29 90.45 3.69L90.45 3.69L90.45 3.69Q91.40 4.27 91.91 5.24L91.91 5.24L91.91 5.24Q92.40 6.21 92.40 7.39L92.40 7.39L92.40 7.39Q92.40 8.05 92.26 8.65L92.26 8.65L92.26 8.65Q92.10 9.29 91.71 9.98L91.71 9.98L91.71 9.98Q91.28 10.73 90.72 11.21L90.72 11.21L90.72 11.21Q90.09 11.76 89.12 12.08L89.12 12.08L89.12 12.08Q88.12 12.41 86.84 12.41L86.84 12.41L83.23 12.41L83.21 11.87L83.59 11.87L83.59 11.87Q84.11 11.87 84.21 11.79L84.21 11.79L84.21 11.79Q84.32 11.70 84.32 11.25L84.32 11.25L84.32 4.14L84.32 4.14Q84.32 3.77 84.23 3.71L84.23 3.71L84.23 3.71Q84.12 3.64 83.60 3.64L83.60 3.64L83.02 3.64ZM85.46 4.39L85.46 11.22L85.46 11.22Q85.46 11.67 85.62 11.77L85.62 11.77L85.62 11.77Q85.78 11.87 86.65 11.87L86.65 11.87L86.65 11.87Q87.70 11.87 88.49 11.61L88.49 11.61L88.49 11.61Q89.35 11.35 89.78 10.99L89.78 10.99L89.78 10.99Q90.28 10.58 90.58 10.05L90.58 10.05L90.58 10.05Q90.88 9.52 91.01 8.96L91.01 8.96L91.01 8.96Q91.14 8.41 91.14 7.82L91.14 7.82L91.14 7.82Q91.14 7.03 90.87 6.34L90.87 6.34L90.87 6.34Q90.60 5.65 90.08 5.05L90.08 5.05L90.08 5.05Q89.54 4.46 88.63 4.09L88.63 4.09L88.63 4.09Q87.71 3.73 86.55 3.73L86.55 3.73L86.03 3.73L86.03 3.73Q85.67 3.73 85.57 3.85L85.57 3.85L85.57 3.85Q85.46 3.99 85.46 4.39L85.46 4.39ZM100.39 12.41L100.37 11.87L100.54 11.87L100.54 11.87Q100.93 11.87 101.06 11.73L101.06 11.73L101.06 11.73Q101.19 11.57 101.52 10.83L101.52 10.83L102.43 8.82L103.00 7.53L103.00 7.53Q103.27 6.97 103.31 6.86L103.31 6.86L103.31 6.86Q103.38 6.70 103.43 6.60L103.43 6.60L103.43 6.60Q103.48 6.51 103.50 6.45L103.50 6.45L103.59 6.21L105.02 2.74L105.31 2.74L105.31 2.74Q106.17 4.98 108.36 10.25L108.36 10.25L108.36 10.25Q108.81 11.34 109.00 11.64L109.00 11.64L109.00 11.64Q109.14 11.87 109.57 11.87L109.57 11.87L109.79 11.87L109.77 12.41L106.58 12.41L106.59 11.87L107.01 11.87L107.01 11.87Q107.63 11.87 107.63 11.70L107.63 11.70L107.63 11.70Q107.63 11.63 107.49 11.27L107.49 11.27L106.45 8.72L103.20 8.72L102.09 11.18L102.09 11.18Q101.96 11.50 101.96 11.63L101.96 11.63L101.96 11.63Q101.96 11.79 102.05 11.83L102.05 11.83L102.05 11.83Q102.15 11.87 102.53 11.87L102.53 11.87L103.11 11.87L103.11 12.41L100.39 12.41ZM104.88 4.79L103.47 8.10L106.21 8.10L104.88 4.79ZM117.91 3.64L117.52 3.64L117.54 3.08L120.64 3.08L120.64 3.08Q122.38 3.08 123.16 3.75L123.16 3.75L123.16 3.75Q123.94 4.42 123.93 5.37L123.93 5.37L123.93 5.37Q123.93 6.08 123.40 6.60L123.40 6.60L123.40 6.60Q122.83 7.14 122.14 7.35L122.14 7.35L122.14 7.35Q123.22 7.57 123.75 8.34L123.75 8.34L123.75 8.34Q124.27 9.08 124.26 10.01L124.26 10.01L124.26 10.01Q124.26 11.01 123.63 11.59L123.63 11.59L123.63 11.59Q123.03 12.13 122.08 12.28L122.08 12.28L122.08 12.28Q121.16 12.41 119.62 12.41L119.62 12.41L117.63 12.41L117.63 11.87L118.05 11.87L118.05 11.87Q118.41 11.87 118.52 11.80L118.52 11.80L118.52 11.80Q118.64 11.73 118.64 11.46L118.64 11.46L118.64 4.14L118.64 4.14Q118.64 3.81 118.49 3.72L118.49 3.72L118.49 3.72Q118.35 3.64 117.91 3.64L117.91 3.64ZM119.75 7.59L119.75 7.59L119.77 11.35L119.77 11.35Q119.77 11.63 119.94 11.71L119.94 11.71L119.94 11.71Q120.11 11.80 120.68 11.80L120.68 11.80L120.68 11.80Q122.94 11.80 122.94 9.91L122.94 9.91L122.94 9.91Q122.94 9.22 122.62 8.73L122.62 8.73L122.62 8.73Q122.30 8.24 121.78 8.02L121.78 8.02L121.78 8.02Q121.19 7.75 120.75 7.68L120.75 7.68L120.75 7.68Q120.27 7.59 119.75 7.59ZM119.77 4.01L119.77 7.19L121.15 7.19L121.15 7.19Q121.80 7.19 122.22 6.66L122.22 6.66L122.22 6.66Q122.62 6.15 122.63 5.54L122.63 5.54L122.63 5.54Q122.63 4.85 122.04 4.27L122.04 4.27L122.04 4.27Q121.47 3.69 120.19 3.69L120.19 3.69L120.19 3.69Q119.77 3.69 119.77 4.01L119.77 4.01ZM132.80 3.64L132.31 3.64L132.32 3.08L135.91 3.08L135.91 3.64L135.28 3.64L135.28 3.64Q134.90 3.64 134.79 3.72L134.79 3.72L134.79 3.72Q134.67 3.80 134.67 4.16L134.67 4.16L134.67 11.22L134.67 11.22Q134.67 11.57 134.76 11.67L134.76 11.67L134.76 11.67Q134.85 11.77 135.14 11.77L135.14 11.77L135.14 11.77Q138.01 11.74 138.67 11.63L138.67 11.63L138.67 11.63Q138.88 11.61 138.96 11.39L138.96 11.39L138.96 11.39Q139.04 11.17 139.24 10.05L139.24 10.05L139.73 10.08L139.27 12.41L132.51 12.41L132.49 11.87L132.88 11.87L132.88 11.87Q133.39 11.87 133.46 11.80L133.46 11.80L133.46 11.80Q133.54 11.72 133.55 11.33L133.55 11.33L133.55 4.09L133.55 4.09Q133.55 3.80 133.39 3.72L133.39 3.72L133.39 3.72Q133.24 3.64 132.80 3.64L132.80 3.64ZM147.48 3.64L147.46 3.08L154.68 3.08L154.68 3.08Q154.69 4.14 154.75 5.28L154.75 5.28L154.20 5.30L154.20 5.30Q154.18 4.66 154.13 4.25L154.13 4.25L154.13 4.25Q154.09 3.89 154.03 3.80L154.03 3.80L154.03 3.80Q153.98 3.71 153.86 3.69L153.86 3.69L153.86 3.69Q153.77 3.68 153.18 3.68L153.18 3.68L150.80 3.68L150.80 3.68Q150.25 3.68 150.11 3.77L150.11 3.77L150.11 3.77Q149.99 3.86 149.99 4.33L149.99 4.33L149.99 6.28L149.99 6.28Q149.99 6.69 150.04 6.76L150.04 6.76L150.04 6.76Q150.11 6.84 150.45 6.84L150.45 6.84L152.56 6.84L152.56 6.84Q152.93 6.84 153.01 6.73L153.01 6.73L153.01 6.73Q153.09 6.63 153.10 6.14L153.10 6.14L153.10 5.61L153.61 5.63L153.61 8.97L153.10 8.97L153.10 8.24L153.10 8.24Q153.10 7.66 153.02 7.57L153.02 7.57L153.02 7.57Q152.94 7.46 152.59 7.46L152.59 7.46L150.49 7.46L150.49 7.46Q150.16 7.46 150.07 7.54L150.07 7.54L150.07 7.54Q149.99 7.63 149.99 7.89L149.99 7.89L149.99 11.20L149.99 11.20Q149.99 11.57 150.07 11.67L150.07 11.67L150.07 11.67Q150.16 11.77 150.43 11.77L150.43 11.77L150.43 11.77Q153.35 11.75 153.88 11.69L153.88 11.69L153.88 11.69Q154.40 11.63 154.48 11.38L154.48 11.38L154.49 11.36L154.49 11.35L154.72 10.17L155.20 10.25L154.85 12.41L147.75 12.41L147.75 11.87L148.11 11.87L148.11 11.87Q148.67 11.87 148.76 11.80L148.76 11.80L148.76 11.80Q148.85 11.72 148.85 11.33L148.85 11.33L148.85 4.24L148.85 4.24Q148.85 3.82 148.70 3.73L148.70 3.73L148.70 3.73Q148.53 3.64 147.88 3.64L147.88 3.64L147.48 3.64ZM172.88 9.26L172.88 9.26L172.88 9.26Q172.88 8.63 173.13 8.15L173.13 8.15L173.13 8.15Q173.39 7.66 173.75 7.42L173.75 7.42L173.75 7.42Q174.11 7.18 174.35 7.07L174.35 7.07L174.35 7.07Q174.56 6.97 174.71 6.92L174.71 6.92L174.73 6.92L174.45 6.62L174.45 6.62Q174.22 6.38 174.00 5.92L174.00 5.92L174.00 5.92Q173.76 5.44 173.76 5.05L173.76 5.05L173.76 5.05Q173.76 4.22 174.42 3.61L174.42 3.61L174.42 3.61Q175.08 2.99 176.16 2.99L176.16 2.99L176.16 2.99Q176.98 2.99 177.61 3.46L177.61 3.46L177.61 3.46Q178.24 3.92 178.24 4.55L178.24 4.55L178.24 4.55Q178.24 5.03 177.91 5.43L177.91 5.43L177.91 5.43Q177.57 5.83 177.05 5.83L177.05 5.83L177.05 5.83Q176.78 5.83 176.54 5.74L176.54 5.74L176.54 5.74Q176.27 5.64 176.27 5.50L176.27 5.50L176.27 5.50Q176.27 5.41 176.49 5.36L176.49 5.36L176.49 5.36Q176.70 5.30 176.96 5.12L176.96 5.12L176.96 5.12Q177.19 4.95 177.19 4.61L177.19 4.61L177.19 4.61Q177.19 4.15 176.83 3.83L176.83 3.83L176.83 3.83Q176.48 3.53 176.02 3.53L176.02 3.53L176.02 3.53Q175.59 3.53 175.21 3.83L175.21 3.83L175.21 3.83Q174.86 4.13 174.86 4.56L174.86 4.56L174.86 4.56Q174.86 5.17 175.38 5.79L175.38 5.79L175.38 5.79Q175.92 6.45 177.49 7.89L177.49 7.89L178.29 8.62L178.29 8.62Q178.65 8.97 178.94 9.19L178.94 9.19L179.39 9.56L179.39 9.56Q179.42 9.58 179.80 9.86L179.80 9.86L179.80 9.86Q180.02 10.04 180.07 10.08L180.07 10.08L180.44 10.37L180.50 10.30L180.50 10.30Q180.58 10.19 180.63 10.10L180.63 10.10L180.63 10.10Q180.64 10.06 180.70 9.96L180.70 9.96L180.70 9.96Q180.76 9.85 180.79 9.80L180.79 9.80L180.79 9.80Q180.84 9.69 180.96 9.41L180.96 9.41L180.96 9.41Q181.04 9.19 181.13 8.94L181.13 8.94L181.13 8.94Q181.18 8.77 181.24 8.38L181.24 8.38L181.24 8.38Q181.28 8.09 181.28 7.78L181.28 7.78L181.28 7.78Q181.28 7.22 181.19 6.82L181.19 6.82L181.19 6.82Q181.08 6.34 180.84 6.28L180.84 6.28L180.84 6.28Q180.59 6.21 179.36 6.20L179.36 6.20L179.33 5.65L183.07 5.65L183.09 6.20L183.09 6.20Q181.94 6.23 181.87 6.25L181.87 6.25L181.87 6.25Q181.79 6.30 181.79 6.36L181.79 6.36L181.79 6.36Q181.79 6.38 181.83 6.49L181.83 6.49L181.83 6.49Q181.87 6.60 181.91 6.91L181.91 6.91L181.91 6.91Q181.97 7.36 181.97 7.82L181.97 7.82L181.97 7.82Q181.97 8.45 181.71 9.17L181.71 9.17L181.71 9.17Q181.45 9.91 181.21 10.32L181.21 10.32L180.96 10.72L181.25 10.92L181.55 11.12L181.55 11.12Q181.73 11.24 181.82 11.28L181.82 11.28L181.82 11.28Q181.99 11.38 182.12 11.42L182.12 11.42L182.12 11.42Q182.26 11.46 182.43 11.50L182.43 11.50L182.43 11.50Q182.63 11.55 182.78 11.55L182.78 11.55L182.78 11.55Q183.07 11.55 183.35 11.46L183.35 11.46L183.35 11.46Q183.58 11.40 183.69 11.39L183.69 11.39L183.69 11.39Q183.83 11.39 183.83 11.55L183.83 11.55L183.83 11.55Q183.83 12.00 183.35 12.30L183.35 12.30L183.35 12.30Q182.86 12.63 182.16 12.63L182.16 12.63L182.16 12.63Q181.86 12.63 181.34 12.39L181.34 12.39L181.34 12.39Q180.84 12.16 180.48 11.91L180.48 11.91L180.15 11.67L180.15 11.67Q180.13 11.70 180.05 11.79L180.05 11.79L180.05 11.79Q180.01 11.83 179.72 12.02L179.72 12.02L179.72 12.02Q179.41 12.24 179.16 12.33L179.16 12.33L179.16 12.33Q178.74 12.50 178.32 12.58L178.32 12.58L178.32 12.58Q177.75 12.69 177.18 12.69L177.18 12.69L177.18 12.69Q175.43 12.69 174.16 11.80L174.16 11.80L174.16 11.80Q172.88 10.90 172.88 9.26ZM174.19 8.83L174.19 8.83L174.19 8.83Q174.19 9.67 174.77 10.37L174.77 10.37L174.77 10.37Q175.35 11.04 176.18 11.39L176.18 11.39L176.18 11.39Q177.04 11.74 177.82 11.74L177.82 11.74L177.82 11.74Q178.16 11.74 178.32 11.73L178.32 11.73L178.32 11.73Q178.50 11.72 178.71 11.66L178.71 11.66L178.71 11.66Q178.77 11.64 178.89 11.61L178.89 11.61L178.89 11.61Q179.00 11.57 179.03 11.56L179.03 11.56L179.03 11.56Q179.12 11.53 179.27 11.48L179.27 11.48L179.27 11.48Q179.33 11.45 179.45 11.39L179.45 11.39L179.45 11.39Q179.48 11.38 179.52 11.35L179.52 11.35L179.52 11.35Q179.56 11.32 179.57 11.32L179.57 11.32L179.61 11.29L178.41 10.41L178.41 10.41Q176.96 9.30 175.10 7.32L175.10 7.32L175.10 7.32Q174.74 7.40 174.47 7.82L174.47 7.82L174.47 7.82Q174.19 8.26 174.19 8.83ZM201.48 8.02L201.48 8.02L201.48 8.02Q201.48 6.86 201.95 5.83L201.95 5.83L201.95 5.83Q202.41 4.85 203.16 4.27L203.16 4.27L203.16 4.27Q203.91 3.69 204.80 3.37L204.80 3.37L204.80 3.37Q205.70 3.05 206.54 3.05L206.54 3.05L206.54 3.05Q207.41 3.05 208.08 3.16L208.08 3.16L208.08 3.16Q208.71 3.26 209.00 3.37L209.00 3.37L209.00 3.37Q209.31 3.48 209.34 3.48L209.34 3.48L209.34 3.48Q209.51 3.48 209.54 3.41L209.54 3.41L209.54 3.41Q209.56 3.33 209.56 3.09L209.56 3.09L209.56 2.97L210.10 2.97L210.10 2.97Q210.14 4.30 210.27 5.64L210.27 5.64L209.76 5.65L209.76 5.65Q209.73 5.40 209.72 5.26L209.72 5.26L209.72 5.26Q209.72 5.20 209.71 5.13L209.71 5.13L209.71 5.13Q209.71 5.07 209.70 5.02L209.70 5.02L209.70 5.02Q209.69 4.98 209.69 4.95L209.69 4.95L209.69 4.95Q209.67 4.84 209.67 4.74L209.67 4.74L209.67 4.74Q209.67 4.68 209.62 4.59L209.62 4.59L209.62 4.59Q209.62 4.57 209.59 4.55L209.59 4.55L209.59 4.55Q209.56 4.52 209.56 4.50L209.56 4.50L209.56 4.50Q209.54 4.44 209.47 4.41L209.47 4.41L209.47 4.41Q209.43 4.38 209.40 4.37L209.40 4.37L209.40 4.37Q209.37 4.36 209.34 4.35L209.34 4.35L209.34 4.35Q209.33 4.35 209.31 4.33L209.31 4.33L209.31 4.33Q209.28 4.31 209.24 4.29L209.24 4.29L209.24 4.29Q209.20 4.27 209.16 4.25L209.16 4.25L209.16 4.25Q208.93 4.16 208.91 4.14L208.91 4.14L208.91 4.14Q208.56 3.96 207.92 3.83L207.92 3.83L207.92 3.83Q207.25 3.71 206.58 3.71L206.58 3.71L206.58 3.71Q204.86 3.71 203.77 4.84L203.77 4.84L203.77 4.84Q202.66 5.99 202.67 7.62L202.67 7.62L202.67 7.62Q202.67 9.35 203.88 10.69L203.88 10.69L203.88 10.69Q205.08 12.02 206.90 12.02L206.90 12.02L206.90 12.02Q207.91 12.02 208.85 11.49L208.85 11.49L208.85 11.49Q209.80 10.94 209.83 10.58L209.83 10.58L209.87 9.41L210.36 9.41L210.28 11.45L210.28 11.45Q210.21 11.49 210.08 11.57L210.08 11.57L210.08 11.57Q210.03 11.60 209.56 11.85L209.56 11.85L209.56 11.85Q209.19 12.05 208.74 12.23L208.74 12.23L208.74 12.23Q208.38 12.39 207.73 12.51L207.73 12.51L207.73 12.51Q207.12 12.63 206.55 12.64L206.55 12.64L206.55 12.64Q204.18 12.64 202.82 11.39L202.82 11.39L202.82 11.39Q201.48 10.14 201.48 8.02ZM218.78 7.83L218.78 7.83L218.78 7.83Q218.78 6.62 219.18 5.68L219.18 5.68L219.18 5.68Q219.60 4.72 220.29 4.12L220.29 4.12L220.29 4.12Q220.98 3.51 221.84 3.19L221.84 3.19L221.84 3.19Q222.68 2.88 223.63 2.88L223.63 2.88L223.63 2.88Q224.89 2.88 225.94 3.40L225.94 3.40L225.94 3.40Q227.02 3.93 227.73 5.07L227.73 5.07L227.73 5.07Q228.43 6.17 228.44 7.75L228.44 7.75L228.44 7.75Q228.44 8.70 228.13 9.54L228.13 9.54L228.13 9.54Q227.82 10.38 227.22 11.10L227.22 11.10L227.22 11.10Q226.61 11.81 225.67 12.22L225.67 12.22L225.67 12.22Q224.71 12.63 223.52 12.64L223.52 12.64L223.52 12.64Q222.39 12.64 221.45 12.23L221.45 12.23L221.45 12.23Q220.51 11.83 219.95 11.14L219.95 11.14L219.95 11.14Q219.38 10.45 219.08 9.60L219.08 9.60L219.08 9.60Q218.78 8.72 218.78 7.83ZM220.04 7.38L220.04 7.38L220.04 7.38Q220.04 8.52 220.47 9.60L220.47 9.60L220.47 9.60Q220.87 10.64 221.80 11.33L221.80 11.33L221.80 11.33Q222.71 12.03 223.90 12.04L223.90 12.04L223.90 12.04Q225.27 12.04 226.21 11.01L226.21 11.01L226.21 11.01Q227.16 9.97 227.16 8.10L227.16 8.10L227.16 8.10Q227.16 5.99 226.00 4.72L226.00 4.72L226.00 4.72Q224.85 3.46 223.34 3.45L223.34 3.45L223.34 3.45Q222.82 3.45 222.27 3.65L222.27 3.65L222.27 3.65Q221.73 3.85 221.22 4.25L221.22 4.25L221.22 4.25Q220.68 4.68 220.36 5.48L220.36 5.48L220.36 5.48Q220.04 6.27 220.04 7.38ZM239.72 12.41L236.69 12.41L236.69 11.87L236.83 11.87L236.83 11.87Q237.42 11.87 237.54 11.77L237.54 11.77L237.54 11.77Q237.66 11.68 237.67 11.21L237.67 11.21L237.80 4.38L237.80 4.38Q237.80 4.35 237.81 4.28L237.81 4.28L237.81 4.28Q237.82 4.21 237.82 4.17L237.82 4.17L237.82 4.01L237.82 4.01Q237.82 3.76 237.74 3.71L237.74 3.71L237.74 3.71Q237.64 3.64 237.42 3.64L237.42 3.64L236.71 3.64L236.69 3.08L238.81 3.08L242.00 10.55L245.14 3.08L247.37 3.08L247.37 3.64L246.90 3.64L246.90 3.64Q246.45 3.64 246.33 3.71L246.33 3.71L246.33 3.71Q246.17 3.79 246.17 4.08L246.17 4.08L246.17 11.22L246.17 11.22Q246.17 11.68 246.28 11.77L246.28 11.77L246.28 11.77Q246.39 11.87 247.02 11.87L247.02 11.87L247.30 11.87L247.32 12.41L243.92 12.41L243.90 11.87L244.18 11.87L244.18 11.87Q244.79 11.87 244.91 11.77L244.91 11.77L244.91 11.77Q245.03 11.66 245.03 11.25L245.03 11.25L245.03 4.83L242.88 9.91L242.03 12.02L242.03 12.02Q241.89 12.37 241.85 12.44L241.85 12.44L241.85 12.44Q241.80 12.51 241.73 12.51L241.73 12.51L241.73 12.51Q241.64 12.51 241.19 11.52L241.19 11.52L238.38 5.01L238.31 11.39L238.31 11.39Q238.31 11.74 238.51 11.80L238.51 11.80L238.51 11.80Q238.75 11.87 239.72 11.87L239.72 11.87L239.72 12.41ZM255.06 3.64L255.04 3.08L262.23 3.08L262.23 3.08Q262.24 4.14 262.29 5.28L262.29 5.28L261.75 5.30L261.75 5.30Q261.73 4.66 261.68 4.25L261.68 4.25L261.68 4.25Q261.64 3.89 261.58 3.80L261.58 3.80L261.58 3.80Q261.53 3.71 261.41 3.69L261.41 3.69L261.41 3.69Q261.32 3.68 260.73 3.68L260.73 3.68L258.35 3.68L258.35 3.68Q257.80 3.68 257.66 3.77L257.66 3.77L257.66 3.77Q257.54 3.86 257.54 4.33L257.54 4.33L257.54 6.28L257.54 6.28Q257.54 6.69 257.59 6.76L257.59 6.76L257.59 6.76Q257.66 6.84 258.00 6.84L258.00 6.84L260.11 6.84L260.11 6.84Q260.48 6.84 260.56 6.74L260.56 6.74L260.56 6.74Q260.64 6.64 260.64 6.17L260.64 6.17L260.64 5.63L261.16 5.63L261.16 8.97L260.64 8.97L260.64 8.26L260.64 8.26Q260.64 7.68 260.56 7.57L260.56 7.57L260.56 7.57Q260.48 7.46 260.14 7.46L260.14 7.46L258.04 7.46L258.04 7.46Q257.71 7.46 257.62 7.54L257.62 7.54L257.62 7.54Q257.54 7.63 257.54 7.89L257.54 7.89L257.54 11.20L257.54 11.20Q257.54 11.60 257.61 11.73L257.61 11.73L257.61 11.73Q257.69 11.87 257.95 11.87L257.95 11.87L258.89 11.87L258.89 12.41L255.29 12.41L255.29 11.87L255.71 11.87L255.71 11.87Q256.21 11.87 256.31 11.79L256.31 11.79L256.31 11.79Q256.40 11.70 256.40 11.33L256.40 11.33L256.40 4.24L256.40 4.24Q256.40 3.79 256.23 3.71L256.23 3.71L256.23 3.71Q256.09 3.64 255.06 3.64L255.06 3.64ZM270.72 7.83L270.72 7.83L270.72 7.83Q270.72 6.62 271.13 5.68L271.13 5.68L271.13 5.68Q271.54 4.72 272.23 4.12L272.23 4.12L272.23 4.12Q272.92 3.51 273.79 3.19L273.79 3.19L273.79 3.19Q274.63 2.88 275.58 2.88L275.58 2.88L275.58 2.88Q276.83 2.88 277.89 3.40L277.89 3.40L277.89 3.40Q278.97 3.93 279.68 5.07L279.68 5.07L279.68 5.07Q280.38 6.17 280.38 7.75L280.38 7.75L280.38 7.75Q280.38 8.70 280.08 9.54L280.08 9.54L280.08 9.54Q279.77 10.38 279.16 11.10L279.16 11.10L279.16 11.10Q278.56 11.81 277.62 12.22L277.62 12.22L277.62 12.22Q276.66 12.63 275.47 12.64L275.47 12.64L275.47 12.64Q274.33 12.64 273.40 12.23L273.40 12.23L273.40 12.23Q272.46 11.83 271.90 11.14L271.90 11.14L271.90 11.14Q271.33 10.45 271.03 9.60L271.03 9.60L271.03 9.60Q270.72 8.72 270.72 7.83ZM271.98 7.38L271.98 7.38L271.98 7.38Q271.98 8.52 272.41 9.60L272.41 9.60L272.41 9.60Q272.82 10.64 273.75 11.33L273.75 11.33L273.75 11.33Q274.65 12.03 275.84 12.04L275.84 12.04L275.84 12.04Q277.22 12.04 278.15 11.01L278.15 11.01L278.15 11.01Q279.10 9.97 279.10 8.10L279.10 8.10L279.10 8.10Q279.10 5.99 277.94 4.72L277.94 4.72L277.94 4.72Q276.79 3.46 275.28 3.45L275.28 3.45L275.28 3.45Q274.76 3.45 274.22 3.65L274.22 3.65L274.22 3.65Q273.68 3.85 273.17 4.25L273.17 4.25L273.17 4.25Q272.62 4.68 272.30 5.48L272.30 5.48L272.30 5.48Q271.98 6.27 271.98 7.38ZM288.83 3.64L288.44 3.64L288.46 3.08L291.68 3.08L291.68 3.08Q292.81 3.08 293.41 3.21L293.41 3.21L293.41 3.21Q294.05 3.37 294.52 3.75L294.52 3.75L294.52 3.75Q295.52 4.57 295.52 5.71L295.52 5.71L295.52 5.71Q295.52 6.43 295.05 7.04L295.05 7.04L295.05 7.04Q294.56 7.66 293.53 7.92L293.53 7.92L296.21 11.49L296.21 11.49Q296.52 11.87 296.82 11.87L296.82 11.87L297.42 11.87L297.45 12.41L295.42 12.41L292.42 8.10L292.25 8.10L292.25 8.10Q292.21 8.10 292.15 8.11L292.15 8.11L292.15 8.11Q292.10 8.11 292.09 8.11L292.09 8.11L292.09 8.11Q291.20 8.11 290.81 8.03L290.81 8.03L290.81 11.46L290.81 11.46Q290.81 11.76 290.95 11.81L290.95 11.81L290.95 11.81Q291.07 11.87 291.78 11.87L291.78 11.87L292.49 11.87L292.46 12.41L288.74 12.41L288.74 11.87L289.06 11.87L289.06 11.87Q289.52 11.87 289.59 11.81L289.59 11.81L289.59 11.81Q289.67 11.74 289.67 11.46L289.67 11.46L289.67 4.14L289.67 4.14Q289.67 3.82 289.48 3.73L289.48 3.73L289.48 3.73Q289.26 3.64 288.83 3.64L288.83 3.64ZM290.81 4.28L290.81 7.57L290.81 7.57Q290.99 7.70 291.70 7.71L291.70 7.71L291.70 7.71Q292.97 7.71 293.56 7.27L293.56 7.27L293.56 7.27Q294.14 6.84 294.14 5.92L294.14 5.92L294.14 5.92Q294.14 4.92 293.37 4.27L293.37 4.27L293.37 4.27Q292.61 3.64 291.23 3.64L291.23 3.64L291.23 3.64Q290.98 3.64 290.90 3.75L290.90 3.75L290.90 3.75Q290.81 3.84 290.81 4.28L290.81 4.28ZM305.48 5.35L304.98 5.33L304.98 5.33Q305.10 4.17 305.18 3.08L305.18 3.08L313.26 3.08L313.26 3.08Q313.18 4.13 313.15 4.53L313.15 4.53L313.15 4.53Q313.11 5.26 313.09 5.32L313.09 5.32L312.59 5.30L312.59 5.30Q312.68 4.34 312.68 4.16L312.68 4.16L312.68 4.16Q312.68 3.88 312.53 3.79L312.53 3.79L312.53 3.79Q312.36 3.69 311.96 3.69L311.96 3.69L310.35 3.69L310.35 3.69Q309.85 3.69 309.72 3.79L309.72 3.79L309.72 3.79Q309.63 3.87 309.62 4.36L309.62 4.36L309.62 11.22L309.62 11.22Q309.62 11.66 309.76 11.76L309.76 11.76L309.76 11.76Q309.92 11.87 310.43 11.87L310.43 11.87L310.99 11.87L311.01 12.41L307.32 12.40L307.32 11.87L307.54 11.87L307.54 11.87Q308.21 11.87 308.35 11.79L308.35 11.79L308.35 11.79Q308.49 11.70 308.49 11.28L308.49 11.28L308.49 4.48L308.49 4.48Q308.49 3.92 308.39 3.80L308.39 3.80L308.39 3.80Q308.29 3.69 307.87 3.69L307.87 3.69L306.40 3.69L306.40 3.69Q306.22 3.69 306.15 3.71L306.15 3.71L306.15 3.71Q306.08 3.72 305.97 3.72L305.97 3.72L305.97 3.72Q305.94 3.72 305.83 3.79L305.83 3.79L305.83 3.79Q305.74 3.84 305.72 3.86L305.72 3.86L305.72 3.86Q305.69 3.88 305.65 3.99L305.65 3.99L305.65 3.99Q305.62 4.05 305.59 4.14L305.59 4.14L305.59 4.14Q305.57 4.21 305.55 4.36L305.55 4.36L305.55 4.36Q305.52 4.59 305.52 4.61L305.52 4.61L305.52 4.61Q305.52 4.80 305.50 4.95L305.50 4.95L305.50 4.95Q305.50 5.02 305.50 5.15L305.50 5.15L305.50 5.15Q305.49 5.29 305.48 5.35L305.48 5.35ZM321.02 12.41L321.00 11.87L321.17 11.87L321.17 11.87Q321.56 11.87 321.69 11.73L321.69 11.73L321.69 11.73Q321.82 11.57 322.15 10.83L322.15 10.83L323.06 8.82L323.63 7.53L323.63 7.53Q323.90 6.97 323.94 6.86L323.94 6.86L323.94 6.86Q324.01 6.70 324.06 6.60L324.06 6.60L324.06 6.60Q324.11 6.51 324.13 6.45L324.13 6.45L324.22 6.21L325.65 2.74L325.94 2.74L325.94 2.74Q326.80 4.98 328.99 10.25L328.99 10.25L328.99 10.25Q329.44 11.34 329.63 11.64L329.63 11.64L329.63 11.64Q329.77 11.87 330.20 11.87L330.20 11.87L330.42 11.87L330.40 12.41L327.21 12.41L327.22 11.87L327.64 11.87L327.64 11.87Q328.25 11.87 328.25 11.70L328.25 11.70L328.25 11.70Q328.25 11.63 328.12 11.27L328.12 11.27L327.08 8.72L323.83 8.72L322.72 11.18L322.72 11.18Q322.59 11.50 322.59 11.63L322.59 11.63L322.59 11.63Q322.59 11.79 322.68 11.83L322.68 11.83L322.68 11.83Q322.78 11.87 323.16 11.87L323.16 11.87L323.74 11.87L323.74 12.41L321.02 12.41ZM325.51 4.79L324.10 8.10L326.84 8.10L325.51 4.79ZM338.54 3.64L338.15 3.64L338.17 3.08L341.27 3.08L341.27 3.08Q343.01 3.08 343.79 3.75L343.79 3.75L343.79 3.75Q344.57 4.42 344.56 5.37L344.56 5.37L344.56 5.37Q344.56 6.08 344.03 6.60L344.03 6.60L344.03 6.60Q343.46 7.14 342.77 7.35L342.77 7.35L342.77 7.35Q343.85 7.57 344.38 8.34L344.38 8.34L344.38 8.34Q344.90 9.08 344.89 10.01L344.89 10.01L344.89 10.01Q344.89 11.01 344.26 11.59L344.26 11.59L344.26 11.59Q343.66 12.13 342.71 12.28L342.71 12.28L342.71 12.28Q341.79 12.41 340.25 12.41L340.25 12.41L338.26 12.41L338.26 11.87L338.68 11.87L338.68 11.87Q339.04 11.87 339.15 11.80L339.15 11.80L339.15 11.80Q339.27 11.73 339.27 11.46L339.27 11.46L339.27 4.14L339.27 4.14Q339.27 3.81 339.12 3.72L339.12 3.72L339.12 3.72Q338.98 3.64 338.54 3.64L338.54 3.64ZM340.38 7.59L340.38 7.59L340.40 11.35L340.40 11.35Q340.40 11.63 340.57 11.71L340.57 11.71L340.57 11.71Q340.74 11.80 341.31 11.80L341.31 11.80L341.31 11.80Q343.57 11.80 343.57 9.91L343.57 9.91L343.57 9.91Q343.57 9.22 343.25 8.73L343.25 8.73L343.25 8.73Q342.93 8.24 342.41 8.02L342.41 8.02L342.41 8.02Q341.82 7.75 341.38 7.68L341.38 7.68L341.38 7.68Q340.90 7.59 340.38 7.59ZM340.40 4.01L340.40 7.19L341.78 7.19L341.78 7.19Q342.43 7.19 342.85 6.66L342.85 6.66L342.85 6.66Q343.25 6.15 343.26 5.54L343.26 5.54L343.26 5.54Q343.26 4.85 342.67 4.27L342.67 4.27L342.67 4.27Q342.10 3.69 340.82 3.69L340.82 3.69L340.82 3.69Q340.40 3.69 340.40 4.01L340.40 4.01ZM353.43 3.64L352.94 3.64L352.95 3.08L356.54 3.08L356.54 3.64L355.91 3.64L355.91 3.64Q355.53 3.64 355.42 3.72L355.42 3.72L355.42 3.72Q355.30 3.80 355.30 4.16L355.30 4.16L355.30 11.22L355.30 11.22Q355.30 11.57 355.39 11.67L355.39 11.67L355.39 11.67Q355.48 11.77 355.77 11.77L355.77 11.77L355.77 11.77Q358.64 11.74 359.30 11.63L359.30 11.63L359.30 11.63Q359.51 11.61 359.59 11.39L359.59 11.39L359.59 11.39Q359.67 11.17 359.87 10.05L359.87 10.05L360.36 10.08L359.90 12.41L353.14 12.41L353.12 11.87L353.51 11.87L353.51 11.87Q354.02 11.87 354.09 11.80L354.09 11.80L354.09 11.80Q354.17 11.72 354.18 11.33L354.18 11.33L354.18 4.09L354.18 4.09Q354.18 3.80 354.02 3.72L354.02 3.72L354.02 3.72Q353.87 3.64 353.43 3.64L353.43 3.64ZM368.11 3.64L368.09 3.08L375.31 3.08L375.31 3.08Q375.32 4.14 375.38 5.28L375.38 5.28L374.83 5.30L374.83 5.30Q374.81 4.66 374.76 4.25L374.76 4.25L374.76 4.25Q374.72 3.89 374.66 3.80L374.66 3.80L374.66 3.80Q374.61 3.71 374.49 3.69L374.49 3.69L374.49 3.69Q374.40 3.68 373.81 3.68L373.81 3.68L371.43 3.68L371.43 3.68Q370.88 3.68 370.74 3.77L370.74 3.77L370.74 3.77Q370.62 3.86 370.62 4.33L370.62 4.33L370.62 6.28L370.62 6.28Q370.62 6.69 370.67 6.76L370.67 6.76L370.67 6.76Q370.74 6.84 371.08 6.84L371.08 6.84L373.19 6.84L373.19 6.84Q373.56 6.84 373.64 6.73L373.64 6.73L373.64 6.73Q373.72 6.63 373.73 6.14L373.73 6.14L373.73 5.61L374.24 5.63L374.24 8.97L373.73 8.97L373.73 8.24L373.73 8.24Q373.73 7.66 373.65 7.57L373.65 7.57L373.65 7.57Q373.57 7.46 373.22 7.46L373.22 7.46L371.12 7.46L371.12 7.46Q370.79 7.46 370.70 7.54L370.70 7.54L370.70 7.54Q370.62 7.63 370.62 7.89L370.62 7.89L370.62 11.20L370.62 11.20Q370.62 11.57 370.70 11.67L370.70 11.67L370.70 11.67Q370.79 11.77 371.06 11.77L371.06 11.77L371.06 11.77Q373.98 11.75 374.51 11.69L374.51 11.69L374.51 11.69Q375.03 11.63 375.11 11.38L375.11 11.38L375.12 11.36L375.12 11.35L375.35 10.17L375.83 10.25L375.48 12.41L368.38 12.41L368.38 11.87L368.74 11.87L368.74 11.87Q369.30 11.87 369.39 11.80L369.39 11.80L369.39 11.80Q369.48 11.72 369.48 11.33L369.48 11.33L369.48 4.24L369.48 4.24Q369.48 3.82 369.33 3.73L369.33 3.73L369.33 3.73Q369.16 3.64 368.50 3.64L368.50 3.64L368.11 3.64Z"></path></g></svg>